<svg xmlns="http://www.w3.org/2000/svg" width="640" height="180" preserveAspectRatio="xMidYMid slice">
  <g fill="none" fill-rule="evenodd">
    <path fill="#71A1C3" d="M0 0v180h640V0H0z"/>
    <path fill="#344B5A" d="M0 77.32v102.76h640V78.48s-52.2-6.73-78.2-4.93c-26 1.8-185.17 36.02-230.72 40.1-36.87 3.3-63.13-4.35-66.57-6.86-17.1-12.5-30.2-14.8-39.9-15.9-17.9-2-34-7.4-47.1-10-.7-.2-1.7 2.4-3.8 2.4s-44.5-12.5-47.2-13.2c-13.9-.7-16-1.4-20.8-2.4-11.3 2.9-31.7 4.1-31.6 5.6 1.2 11-11.5 17.7-11.2 17.5 5.9-3.4 8.1-6.3 8.1-8.6-.1-7.4-23-9.9-30.8-8.8-8.7 1.2-32.4-2.6-40.1 3.8z"/>
    <path fill="#30301E" d="M90 103c-1.7 3.42-3.26 6.3-6 9v44.5h81s-.28-42.02 0-44.5c-5.35.1-8.85-7.3-13-1-3.85-4.3-5.54.38-7 4-2.8-1.86-3.9-1.6-6 1-1.1-1.74-1.27-2.12-3-3l-1 7c-4.03-3-6.5-4.53-6-10-8.63 1.5-11.4-10.82-20.07-11.15-4.8-.18-8.33 5.6-11.93 8.15-.75-6.16-6.2 3.33-7-4zM50.98 89.6c-4.34.56-7.48 5.36-11.8 5.32-4.9-.04-7.17-5.13-13.4-4.3-2.97.38-6.06 4.66-8.42 4.37C12.16 94.3 0 76.5 0 89.5V180h69s1.05-92.3 0-97c-5.36 10.6-9.5 5.5-18.02 6.6z"/>
    <path fill="#526064" d="M500 79c-15.1 6.13-28.56 5.1-44 14l3 1c-29.42 9.84-46.77 3-73.1 19-5.17 3.14-30.65 19.9-31.9 11-1.16 2.86-2.14 6.78 1.5 8.3 12.63 5.35 48.86 1.8 50.5-12.3 3.66 1.4 4.34 3.24 5 7 4.44-2.65 7.7-4.55 13-4-1.2-6.93 11.5-14.73 17-10 13.48-12.12 25.4 3.53 39 5 0 0 15.56-11.68 20-12.7-2.47-8.47 4.57-18.3 4.97-26.3H500z"/>
    <path fill="#D1D3C6" d="M358.4 95.94c-2.63-.06-4.28 1.03-6.93.68-1.6 0-10.08 2.7-17 2.85-5.8.14-10.02-2.25-13-2.25-3.66 0-11.7-1.92-13.64-2.43-1.95-.6-7.66-1.5-9.23-1.1-9.02 5.3-20.8 5.1-20.8 5.1l-10.14-1c-3.12.3-9.34 2.2-9.34 2.2l-8.5-2.3c-1.14 6 69.5 25.6 84.66 25.1 10.65-.4 56.63-23.2 58.25-23.6-1-.3 33.68-3.5 27.28-3.5-6.4 0-29.3.7-29.3.7-6 1.2-9.8-2.2-14-2.9-1.2-.2-6 1-6.6 1 0 0-6.5 1.1-11.6 1.1z"/>
    <path fill="#1F1809" d="M601 65c-1.14 3.53-2.22 4.8-6 5 1.26 1.63 2.1 2.13 4 3-1.57 3.07-1.82 4.65-1 8-3.17-1.22-5.54-2.65-8-5-2.68 3.27-4.72 5.44-9 6-.3 5.56 2.6 8.3 8 9l-2-4c8.07 3.5 17.4 4.4 26 6-.52-1.82-1.14-3.3-2-5 2.75-2.27 2.72-3.96 1-7 3.07-1.45 4.08-2.74 5-6-3.13 1.46-5.54 2.06-9 2 .48-.7-4.9-6.88-5-12h-2z"/>
    <path fill="#627680" d="M279 117.05c10.14 2.12 29.87 1.86 42.27 4.53 5 2.37 7.6 9.67 8.95 13.48 10.28.8 18.6-4.95 26.36-5.9 13.14-1.6 24.7-13.92 36.57-19.52 9.82-4.63 22.45-2.1 32.85-4.23 11.25-2.3 22-8.9 33-10.4 0 0 3.67-2.6 4.54-5.5-6.56 0-15.25 4.5-21.78 5.5-3.87.6-9.6-.6-13.47 0-2 .3-5.8 0-6.3 0-.8.1-2.7 1.4-3.5 1.5-6.3.9-8.8-2-15-.8-2.8.5-5.6 2.7-8.3 3.2-9.2 1.6-9 2.5-18.4 2.5-1.6 0-9.1 1.2-10.7.6-1.3 0-5.4-.8-7.4-.5-2.1 1.1-3.5 1.1-4.1 1.1-7.4-.06-11.3-.86-21.3-5.7-5.9-.6-12.7-.26-20 0-2.3.1-7.8 1.1-10.1 1.2-8.5.4-12.2-.3-16.2-1.2-2.4.75-2.8.5-4.1.75-7.1 4-15.6 5.6-22.14 7.6 5.4 4.5 10.7 10.7 17.84 12.2z"/>
    <path fill="#30301E" d="M70 79c1.98-.46 8.6 5.8 9 11 2.2-6.78-1.84-13.77-6-19-1.65 2.7-2.6 4.85-3 8z"/>
    <path fill="#1F1809" d="M500 95c5.73 0-6.1 14.87-4.77 16.62 1.6 2.1 34.5 1.47 34.5 1.47C525.76 112 517.2 93 518 90c-2.58-.92-3.17-1.4-4-4-5.57.1-4.4-10.05-4-14h-3c-1.8 8.1-5.33 15-7 23z"/>
    <path fill="#30301E" d="M197 180h443v-77l-11.43 3.1c-.94.5-29.62-12.68-29.62-12.68l-31 9.6-32.65-14.16-17.52 21.75-27.42 2.5S443.13 138 443 138l2 4c-10.77-3.34-34.5-2.6-36-16-3.9 1.5-4.8 4.02-4 8-12.06-.03-37.46 3.17-47.9-.7-5.17-1.92-4.5-7.9-9.1-10.3-.55 3.23-.7 5.8 0 9-8.53.02-16.58 4.25-25 3.73-33.77-2.05-67.92-12.14-101.78-12.02-8.13.1-15.63 3.7-24.22 3.3 2.88 2.6 0 53 0 53z"/>
    <path fill="#627680" d="M509.6 77l1.27 4.47c3.57 1.66 53.05 6 53.05 6S581.64 76.47 584 77c-.07-1.95-.3-2.34 1.04-3.4-17.63-6-53 1.78-71.06 6.03l-4.4-2.63zm106.93-.22C618.23 82.6 631.86 80 637 80l-2-5 5-1c-6.84-2.3-14.07.33-21 1l-2.47 1.78z"/>
    <path fill="#526064" d="M583.44 77c-2.4-.62-3.97-.9-6.44-1 0 1.82-8.63 2.27-12 2-.46 2.95-1.35 3.65-4 5-.1-2.63.05-4.55 1-7-5.58.6-20.46 12.54-22 1-4.42.1-9.12-.1-10 5-6.1-.22-11.03-.6-17 1 1.8 3.1 4.5 4.42 8 5l-2-3c13.96 0 31.25-3.84 41 11 3.86-1.7 6.3-.64 10 1-.7-2.6-1.64-4.65-3-7 7.45.97 12.3.17 14-8 5.65 1.2 6.08-2.6 6.08-2.6s-2.33-2.76-3.08-2.4h-.56zM635 75l2 5c-7.94 0-13.3-1.73-20-5-2.97 11.48 1.18 14.34 12 18 1.62-1.98 2.42-2.03 5-2 .76-4 1.8-6.33 6-7V74l-5 1z"/>
    <path fill="#1F1809" d="M65 97l-5-2c.56 2.75 1.48 4.65 3 7l-4-1c.1 4.37-5.8 20.85-9 19-.5 3.37 1.1 6.74 2 10l-4-2c-2.37 5.6.95 14.6-5 17-.5 2.5-1.45 3.98-3 6l4 1-5 3c-.48-6.27-8.06-16.55-2-21-2.34-.26-3.77.17-6 1l-1-12c-2.5-.32-4.6-1.22-7-2v7c-1.8-1.65-2.7-3.68-5-4 .9-2.66 1.5-5.24 2-8-5.14-1.04.47-8.47-1-13 1.48 1 1.2 1 3 1-2.9-9.5-8.84-.6-15 2l-2-9H0v83h228s25.3-.97 26-4c-4.56-.3-8.62-2.75-13-4l5-5c.06 2.72.35 3.84 2 6l1-13c-4.4 3.94-9.37 4.67-15 6 1.13-1.4 2.22-2.42 3-4h-7c3.2-5.7-3.26-8.3-6-13l4 1c-1.72-2.6-3.78-4.8-6-7l-1 4-4-13c-1.3 2.84-1.47 4.92-1 8-2.94-.88-13.5-7.55-10-8-2.8-2.4-5.55-4.7-9-6 2.52-12.24-5.36-2.6-9 0l2-4c-3.12-1.48-5.5-2.88-9-3-.67-3.42-2.7-4-6-4 4.1-6.85 6.58-12.78-4-14 .36 2.03.52 2.64 2 4-1.66 2.88-1.62 4.75-1 8-2.05-.45-11.5.5-7 3-3.2 1.6-4.57 4.36-6 4-.06 6.36-.27 12.72 1 19l-7-4c-1.23 5.26-1.48 10.1-4 15v-4l-11 3c7.42-12.65-2.24-15.35-2-7-2.04-1.88-15.04-32.66-19-19 2.6.13 2.94.6 4 3-9.74 1.2-10.04 1.9-8-9-3.47.73-6.68 1.78-10 3-1.57-6.12-4.3-2.57-4 2-1.85-1.94-2.36-3.7-5-4 2.9-8.6-1.57-9.92-10-7 8.18-8.53-3.02-29.16-11-36-4.27 4.12-7.35 14-8 20z"/>
    <path fill="#526064" d="M192 87v5c6.8-2.02 13.74 3.67 21 4l-1-5c8.07 1 13.64 7.17 22 8l-2-4c3.8 1.8 6.74 3.43 11 3-1.66-1.36-3.02-2.15-5-3 .1-.28.25-.9 1.24-1.25-5.24-.93-10.9-7.84-14.24-8.26-2.25-.3-4.46-4.1-5.64-4.5-2.37.4-4.53 2.3-9.02.4-4.94-.6-25.68.8-33.34-.5 3.38 5 9.16 6.4 15 6z"/>
    <path fill="#1F1809" d="M426 160c1.8.57 2.07.47 4 0-.8 1.9-1.05 2.94-1 5l-6-1c.9 1.7 1.5 3.14 2 5-3.34-1.6-4.46-.08-6 3l4-1c-1.8 3.23-3.3 4.12-7 4 .05 2.3 4.08 4.83 4.08 4.83l11.98-.43H640.1c-1.6-7.1.58-68.83-1.27-75.32-.2-.65-51.27-12.7-95.03-6.8-42.44 5.73-83.1 31.25-96.43 34.14-.97.2-5 9.22-8.03 12.4 3.02 1.88.75 6.88.75 6.88s-3.3-.93-4.6 0c-1.7 1.2-1.5 4.32-1.5 4.3l-6 1c0 2.33-.3 2.55-2 4z"/>
    <path fill="#4E361D" d="M514 86c.15 3 1.08 3.4 4 4-1.33 2.8-4.48 6.46 0 7-.86 1.7-1.48 3.18-2 5-2.13-.63-2.87-.62-5 0-.48-2.36-.64-2.52-3-3-.12 2.12-.44 3.95-1 6 4.2-.02 5.66 1 7 5-2.62-2.22-4.6-3.43-8-4l2 3c-2.57-.65-8.63-.47-9.9-3.26-.9-1.97 7.47-9.76 1.9-10.74 1.95-4.88 4.52-10.78 5-16-6.9 4.85-8.08 13.66-5 21-6.85.92-10.22 17.4-18 8l-5 2c.73 2.94 1.4 5.43 3 8l-8-1 2 4c-12.03-3.24-27.3 8.86-25 20-7.17 2.2-6 7.6-3 13-3.5-1.3-5.72-.6-7 3 6.48.76 18.54 18.7 3 18v5h26c-.54-3.8-2.46-5.7-4-9 4.02.7 7.92.98 12 1-2.2-2.24-3.86-4.05-5-7-6.08 1.98-9.08-.6-15-2 1.35-2.43 1.66-3.32 1-6l3 1-2-4c2.48 2.24 3.44 3.7 4 7h3c-1.35-4.1-3.44-7.7-4-12-4.37.08-4.48-1.84-1-4l3 5c1.7-.9 3.14-1.5 5-2-.25 3.14 1.2 8-2 8 1.24 3 2.4 5.03 5 7-1.14-14.6 5.32-19.44 7-32 2.93 1.6 5.85 2.9 9 4-.48-2.36-.64-2.52-3-3 2.8-3.2 4.64-3.75 8-1 1.33-3.27-2.07-4.72-2-8 3.68 3.1 6.33 7.03 9 11 .8-3.04.28-5.9 0-9 1.27 1.54 1.5 2.05 2 4 2-4.5-1.67-8.3-2-13l-5 1c5.36-6.78 10.57-3.03 18-2-6.2 2.6-5.25 2-9 7 4.64 1.77 8.1 1.95 13 2l1-6c1.1 1.74 1.27 2.12 3 3-1.3 1.6-1.53 2.02-2 4 8.06 3.8 8.3 14.32 6 22-1.13-2.33-1.52-2.98 0-5-4.4-4.7-5-9.18-12-6 4.44 9.1.4 10.55-8 13 7.2 2.36 11.13-.65 14 8-4.36-.76-7.73-1.97-11-5l-2 3c2.88 3.38 4.38 7.87 6 12 .75-3.2-.16-5.86-1-9 6.77 1.42 12.9-3.3 6-9 3.34-3.34.13-7.5 4-10-.26 6.06 5.55 16.58 1 21 1.66 1.36 3.02 2.15 5 3l-2-10c2.83 1.1 3.4 2.03 4 5 6.7-4.07 4.15 11.75 8 13-4.53 2-5.92 5.28-2 9l-1-6c3.93 2 6.62 3.3 11 2-2.5-2.47 0-12.2 0-17l-4 1c-.42-8.17-1.12-15.9 0-24l2 4c1-2.97.85-5.9 1-9-1.48 1.36-1.64 1.97-2 4-2.9-2.4-5.6-4.37-9-6 2.6-.86 2.8-1.26 3-4l-4 2 4-6c1.2 1.2 1.53 1.58 2 3 4.18-3.42 7.34-3.74 10-9-3.57-1.96-9.75-10.82-11-5-8.35-17.35 5.6-10.3 6 1 4.72-9.24-3.44-13.24 9-14-.6 5.94 1.2 7.77 7 9-1.03 2.47-1.13 4.33-1 7l5-3v6l4-1-3 3c3.82 2.35 5.83 3.2 10 1-.52 2.36-.84 4.6-1 7l-2-3v6c-1.78-2.7-2.24-2.53-5-1v-7h-2v10c3.28.8 4.93 2.35 7 5-2.7.58-2.8 1.26-3 4 5.5-3.16 8.86-9.4 15-12-.47-1.97-.52-3.04 0-5l-4 1c1.68-2.1 2.18-2.6 1-5 2.57-1 4.23-1.88 6-4l-6-1 5-4-5-2c3.73-1.36 6.63-.4 9-4v6h2c.17-4.97 3.25-7.56 4-12 2.33 2 2.2 3.23 1 6 5.18.37 9.2-1.22 14-3-2.04 3.6.38 7.07-1 11 3.93 1.97 8.66 5.7 9 4l2 3c.86-9.3 3.93-12.88 4-1-3.5.53-2.78 5.44 1 5l-3 2c.93 5.68-.1 11.23 1 17 3.94-5.45 4.62-15.3 8-22-2.12.9-2.1.88-3 3 .63-4.06 2.96-5.48 6-8l-5 1c2.98-4.24 16.65-6.7 9-13-.22 2.26 0 2.03-2 3 6.82-10.33.53-28.6-1-15-2.95-.75-4.3-1.2-5 2-4.55-2.08-15.08-12.04-17-12 1.3 3.07 1.1 4.42-1 7l2 5c-8.66-2.02-17.57-3.07-26-6l2 4c-8.4-1.78-13.46-.25-22-1l3 7c-3.65-2.15-6.16-3.18-10-1l-1-4c-5.48 2.1-8.5.63-14 0 4.04-19.18-25.44-5.55-24-5-7.06-.7-9.18-6.3-12-12 0 3.63.6 11.5 5 11zm78 0c4.27 1.9 11.8 2.78 15-1-5.43-.1-9.65-.44-15 1z"/>
    <path fill="#4E361D" d="M599 107c-.8 4.35-2.83 8.17-5 12 7.7 5.4 1.5 23 1 31 .68-1.5.83-2.3 1-4 .55 2.07.85 3.87 1 6 .68-1.5.83-2.3 1-4 1.26 2.3 2.18 4.5 3 7 1-3.5-.1-6.55-1-10 2.64 2.77 4.03 4.17 8 4-1.9-1.65-3.6-2.92-5-5l4 2c-14.68-13.05-.8-23.05-8-39z"/>
    <path fill="#344B5A" d="M441 113c-4.93-7.48-19.63 4.54-17 10-5.54-1.37-8.65.65-13 4-.43-3.86-.98-6.15-5-7-3.4 17.44-15.95 8.64-29 11 8.36 2.93 19.2 2.97 28 3-.86-4.32 0-6.13 4-8 .8 13.16 25.15 13.55 36 16l-2-4c5.9.62 2.38-5.6 8-6 .5-4.64 1.9-7.38 0-12l4 2c-3.3-17.84 8.15-3.05 19-1-2.1-11.74-26.08-18.56-33-8z"/>
    <path fill="#1F1809" d="M455 122l-4-2c1.2 4 1.13 6.4-1 10 23.34 7.5-2.2-38.46 5-8z"/>
    <path fill="#526064" d="M284.07 130.73c5.55 1.3 11.5 2.26 17.3 2.3-3.9-5.3 1.06-14.68 1.06-14.68-8.46-4.9-14.68-2.47-21.15-.95 1.72 2.76 3.4 10.1 2.8 13.33z"/>
    <path fill="#344B5A" d="M298 133c3.7.93 7.2 1 11 1 .27-2.48.53-2.53 3-3-2.04-8.6-7.7-13.08-16-15.17.82 2.58 2.76 16.13 2 17.17z"/>
    <path fill="#526064" d="M311.43 134.62c6.84 1.02 6.88.78 11.25 1.18-1.3-8.95-4.02-15-5.12-15-4.8-.86-10.37-1.08-13.04-1.27 4.87 1.7 6.9 7.72 6.9 15.1z"/>
    <path fill="#1F1809" d="M137 135c4 .22 5.84-.63 8-4h-4c1.03-2.7 1.7-5.14 2-8-5.74 2.45-4.96 6.7-6 12z"/>
    <path fill="#4E361D" d="M634 133c6.56 7.37.36 7.63-6 7 1.16 5.43 12 6.22 12 6.22V128s-3.75 1.98-3-1h-3c.6 2.57 2.3 4.37 0 6z"/>
    <path fill="#1F1809" d="M460 132c-1.37 1.65-1.83 1.75-4 2 2.75 3.06 4.64 1.32 6-2h-2z"/>
    <path fill="#4E361D" d="M586 136c0 4.75.17 9.3 1 14 1.5-4.45 1-9.34 1-14h-2z"/>
    <path fill="#1F1809" d="M348 146c3.57 0 .78 3.78 3 6-10.7 4.75-11 28-11 28h52.05s-.54-8.85-2.05-12c-2.98.6-1.73 1.57-4 1l-1 7c-1.96-1-2.8-1.13-5-1-.33-4.73-1.57-7.1-6-9-.7 11.8-6.2 5.9-14 7 0-3.2.4-5.27-3-6 5.6-4.8-.17-5.8-5-6 1.54-1.27 2.05-1.5 4-2-.76-2.48-1.85-4.67-3-7l4 2c-3.56-6.5-3.8-7.24-1-14l-4 2 1-3h-3c-.4 2.48-1.1 4.65-2 7z"/>
    <path fill="#4E361D" d="M499 139c.65 3.7.96 7.26 1 11l-3-3c.45 3.12 2.84 4.8 5 7 1.2-4.77-.34-10.93-3-15zm125 26c4.9-5.18 2.78-11.36 12-11-2.25-2.42-3.92-4.7-7-6l2 3c-4.57-1.34-4.93-3.57-4-8-8.16 3.75-1.64 15.12-3 22zm-58-20c-.4 4.32-2.53 8.7 1 12 .14-4.22 1.03-8.16-1-12z"/>
    <path fill="#1F1809" d="M413 151c-4.13 6.43-4.43 12.1-7 19l6-1c.64-3.04 2.55-5.27 4-8-2.72 1.26-3.74 2.28-5 5-.26-5.2 2.83-8.17 6-12l-4-3z"/>
    <path fill="#4E361D" d="M577 160c-.4 6.6-2.9 15.26 3 20-.06-6.17.32-14.7-3-20z"/>
  </g>
</svg>
